<?xml version="1.0" encoding="utf-8"?>
<!-- Generator: Adobe Illustrator 22.1.0, SVG Export Plug-In . SVG Version: 6.00 Build 0)  -->
<svg version="1.1" id="Calque_1" xmlns="http://www.w3.org/2000/svg" xmlns:xlink="http://www.w3.org/1999/xlink" x="0px" y="0px"
	 viewBox="0 0 612 792" style="enable-background:new 0 0 612 792;" xml:space="preserve">
<style type="text/css">
	.st0{fill:#FFFFFF;}
	.st1{font-family:'ClaudiaPersonalUse-Regular';}
	.st2{font-size:135.7361px;}
	.st3{fill:#E94E1B;}
	.st4{fill:url(#SVGID_1_);}
	.st5{fill:url(#SVGID_2_);}
	.st6{fill:url(#SVGID_3_);}
	.st7{fill:url(#SVGID_4_);}
</style>
<text transform="matrix(1 0 0 1 271.2294 330.5529)" class="st0 st1 st2">el</text>
<g>
	<path d="M194.6,208.1c-0.3,82.6-0.5,165.3-0.8,247.9"/>
	<g>
		<path class="st3" d="M189.6,208.1c-0.3,82.6-0.5,165.3-0.8,247.9c0,6.4,10,6.4,10,0c0.3-82.6,0.5-165.3,0.8-247.9
			C199.6,201.7,189.6,201.7,189.6,208.1L189.6,208.1z"/>
	</g>
</g>
<g>
	<path d="M209.7,209.9c0.3,82.1,0.7,164.1,1,246.2"/>
	<g>
		<path class="st3" d="M204.7,209.9c0.3,82.1,0.7,164.1,1,246.2c0,6.4,10,6.4,10,0c-0.3-82.1-0.7-164.1-1-246.2
			C214.6,203.4,204.6,203.4,204.7,209.9L204.7,209.9z"/>
	</g>
</g>
<g>
	<path d="M212,326.1c20.8-38.1,40.2-76.9,58.3-116.4"/>
	<g>
		<path class="st3" d="M216.3,328.7c20.8-38.1,40.2-76.9,58.3-116.4c2.7-5.8-6-10.9-8.6-5c-18.1,39.5-37.5,78.3-58.3,116.4
			C204.6,329.3,213.2,334.3,216.3,328.7L216.3,328.7z"/>
	</g>
</g>
<g>
	<path d="M226.8,337.3c20.3-40.4,40.7-80.7,61-121.1"/>
	<g>
		<path class="st3" d="M231.1,339.9c20.3-40.4,40.7-80.7,61-121.1c2.9-5.7-5.7-10.8-8.6-5c-20.3,40.4-40.7,80.7-61,121.1
			C219.6,340.5,228.2,345.6,231.1,339.9L231.1,339.9z"/>
	</g>
</g>
<g>
	<path d="M226.8,337.1c22.1,39.8,44.1,79.7,66.2,119.5"/>
	<g>
		<path class="st3" d="M222.5,339.6c22.1,39.8,44.1,79.7,66.2,119.5c3.1,5.6,11.8,0.6,8.6-5c-22.1-39.8-44.1-79.7-66.2-119.5
			C228,328.9,219.3,333.9,222.5,339.6L222.5,339.6z"/>
	</g>
</g>
<g>
	<path d="M210,344.7c22.1,37.4,42.8,75.7,62.2,114.6"/>
	<g>
		<path class="st3" d="M205.7,347.3c22.1,37.5,42.8,75.7,62.2,114.6c2.9,5.8,11.5,0.7,8.6-5c-19.4-38.9-40.1-77.1-62.2-114.6
			C211.1,336.7,202.4,341.7,205.7,347.3L205.7,347.3z"/>
	</g>
</g>
<g>
	<g>
		<linearGradient id="SVGID_1_" gradientUnits="userSpaceOnUse" x1="202.6591" y1="167.5543" x2="238.6542" y2="167.5543">
			<stop  offset="0" style="stop-color:#FFEF26"/>
			<stop  offset="5.948725e-02" style="stop-color:#FFE000"/>
			<stop  offset="0.1303" style="stop-color:#FFD300"/>
			<stop  offset="0.2032" style="stop-color:#FECB00"/>
			<stop  offset="0.2809" style="stop-color:#FDC800"/>
			<stop  offset="0.6685" style="stop-color:#F18F34"/>
			<stop  offset="0.8876" style="stop-color:#E95F32"/>
			<stop  offset="1" style="stop-color:#E3312D"/>
		</linearGradient>
		<path class="st4" d="M240.7,185.7c-7.2-3.5-14.7-7-20.9-12.2c-5.1-4.2-12.4-12.1-11.1-19.4c0.8-4.6,5.7-4.4,9-2.6
			c3.3,1.7,5.8,4.7,7.6,7.9c4.2,7.6,4.4,16.5,4.3,24.9c0,6.4,10,6.4,10,0c0.1-11.9-0.9-24.5-8.6-34.2c-6.4-8.1-19.5-14.3-28.2-5.7
			c-8.2,8.1-3.2,21.1,2.8,28.8c7.7,10,18.9,15.8,30,21.2C241.5,197.2,246.5,188.5,240.7,185.7L240.7,185.7z"/>
	</g>
</g>
<g>
	<g>
		<linearGradient id="SVGID_2_" gradientUnits="userSpaceOnUse" x1="192.0083" y1="181.159" x2="225.3249" y2="181.159">
			<stop  offset="0" style="stop-color:#FFEF26"/>
			<stop  offset="5.948725e-02" style="stop-color:#FFE000"/>
			<stop  offset="0.1303" style="stop-color:#FFD300"/>
			<stop  offset="0.2032" style="stop-color:#FECB00"/>
			<stop  offset="0.2809" style="stop-color:#FDC800"/>
			<stop  offset="0.6685" style="stop-color:#F18F34"/>
			<stop  offset="0.8876" style="stop-color:#E95F32"/>
			<stop  offset="1" style="stop-color:#E3312D"/>
		</linearGradient>
		<path class="st5" d="M226.4,180.9c-3.6-1.3-6.4-4.3-9.4-6.5c-3.1-2.3-6.6-4.2-10.3-5.4c-6.4-2-14.2-0.9-17.5,5.6
			c-8,15.8,19.9,19.8,29.2,19.6c6.4-0.1,6.4-10.1,0-10c-5.2,0.1-10.3-0.5-15.2-2.2c-0.9-0.3-3.4-1-4.1-1.9c-1.9-2.3,1.3-2.4,3.3-2.1
			c8.3,1.4,13.7,9.7,21.5,12.5C229.8,192.8,232.4,183.1,226.4,180.9L226.4,180.9z"/>
	</g>
</g>
<g>
	<g>
		<linearGradient id="SVGID_3_" gradientUnits="userSpaceOnUse" x1="264.5293" y1="180.3537" x2="293.1517" y2="180.3537">
			<stop  offset="0" style="stop-color:#FFEF26"/>
			<stop  offset="5.948725e-02" style="stop-color:#FFE000"/>
			<stop  offset="0.1303" style="stop-color:#FFD300"/>
			<stop  offset="0.2032" style="stop-color:#FECB00"/>
			<stop  offset="0.2809" style="stop-color:#FDC800"/>
			<stop  offset="0.6685" style="stop-color:#F18F34"/>
			<stop  offset="0.8876" style="stop-color:#E95F32"/>
			<stop  offset="1" style="stop-color:#E3312D"/>
		</linearGradient>
		<path class="st6" d="M264.6,194.1c10.9,0.7,29.9-0.2,32.4-14.3c2.5-14.4-18.9-15-27.6-11.8c-6,2.2-3.4,11.9,2.7,9.6
			c3.3-1.2,6.7-2,10.2-1.4c3.5,0.6,6.3,1.9,2.6,4.7c-5.6,4.3-13.6,3.6-20.2,3.2C258.2,183.7,258.2,193.7,264.6,194.1L264.6,194.1z"
			/>
	</g>
</g>
<g>
	<g>
		<path class="st0" d="M420.1,444.6c12.9,0,12.9-20,0-20C407.3,424.6,407.3,444.6,420.1,444.6L420.1,444.6z"/>
	</g>
</g>
<g>
	<g>
		<linearGradient id="SVGID_4_" gradientUnits="userSpaceOnUse" x1="234.0101" y1="169.9999" x2="273.0076" y2="169.9999">
			<stop  offset="0" style="stop-color:#FFEF26"/>
			<stop  offset="5.948725e-02" style="stop-color:#FFE000"/>
			<stop  offset="0.1303" style="stop-color:#FFD300"/>
			<stop  offset="0.2032" style="stop-color:#FECB00"/>
			<stop  offset="0.2809" style="stop-color:#FDC800"/>
			<stop  offset="0.6685" style="stop-color:#F18F34"/>
			<stop  offset="0.8876" style="stop-color:#E95F32"/>
			<stop  offset="1" style="stop-color:#E3312D"/>
		</linearGradient>
		<path class="st7" d="M240.3,186c-0.8-8.2,0.6-16.2,4.9-23.4c3.6-6.1,12-14.2,18.8-7c5.6,5.9,2.7,15-2,20.4
			c-5.3,6-12.9,9-20.4,11.2c-6.2,1.8-3.5,11.4,2.7,9.6c11.3-3.2,22.4-8.6,28.7-19c5.7-9.4,5.7-22.8-3.1-30.4
			c-9.2-8-21.4-4.6-28.9,3.9c-8.3,9.4-11.9,22.3-10.7,34.7C230.9,192.4,240.9,192.5,240.3,186L240.3,186z"/>
	</g>
</g>
<g>
	<g>
		<path class="st0" d="M201.9,167.2c-8.7-1.9-19.2,8.3-13.9,16.9c0.4,0.7,1.5,0.1,1.1-0.6c-4.7-7.6,4.9-16.7,12.5-15
			C202.4,168.6,202.7,167.4,201.9,167.2L201.9,167.2z"/>
	</g>
</g>
<g>
	<g>
		<path class="st0" d="M202,167.3c-4.8-10.4-4.3-24.8,9.4-26.9c11-1.7,19.5,8.8,24.6,17c0.4,0.7,1.5,0.1,1.1-0.6
			c-5.7-9.3-16.4-21.5-28.8-16.9c-12.4,4.6-12.3,17.5-7.4,28C201.3,168.6,202.4,168,202,167.3L202,167.3z"/>
	</g>
</g>
<g>
	<g>
		<path class="st0" d="M234.3,154.7c0.4,1,0.9,1.9,1.3,2.9c0.3,0.7,1.4,0.1,1.1-0.6c-0.4-1-0.9-1.9-1.3-2.9
			C235,153.4,233.9,154,234.3,154.7L234.3,154.7z"/>
	</g>
</g>
<g>
	<g>
		<path class="st0" d="M236.5,157.6c5.7-8,12.3-14.7,22.9-14.4c11,0.4,18.1,13.1,17.3,23c-0.1,0.8,1.2,0.8,1.2,0
			c0.8-10.1-6-22.6-16.8-24.1c-11.7-1.7-19.5,6.2-25.6,14.9C235,157.6,236,158.3,236.5,157.6L236.5,157.6z"/>
	</g>
</g>
<g>
	<g>
		<path class="st0" d="M277.3,166.7c4.4,0.1,9.8,0.2,13.9,2.3c5.8,3,6.6,9.5,4,15c-0.3,0.7,0.7,1.4,1.1,0.6
			c2.2-4.6,2.6-10.4-1.2-14.4c-4.3-4.5-12-4.6-17.7-4.7C276.5,165.4,276.5,166.7,277.3,166.7L277.3,166.7z"/>
	</g>
</g>
<g>
	<g>
		<path class="st0" d="M269.7,184.1c1.7-1.8,2.9-3.9,4.2-6.1c0.4-0.7-0.7-1.3-1.1-0.6c-1.2,2-2.4,4-4,5.8
			C268.3,183.8,269.2,184.7,269.7,184.1L269.7,184.1z"/>
	</g>
</g>
<g>
	<g>
		<path class="st0" d="M273.6,178.4c2.1-0.5,11.1-3.1,11.9,0.4c0.2,0.8,1.4,0.5,1.2-0.3c-1.2-4.8-10.4-2-13.5-1.3
			C272.5,177.4,272.8,178.6,273.6,178.4L273.6,178.4z"/>
	</g>
</g>
<g>
	<g>
		<path class="st0" d="M285.3,178.3c1.4,1.1-4,4.2-4.8,4.7c-0.7,0.4-0.1,1.5,0.6,1.1c1.7-0.9,8-4.4,4.8-6.8
			C285.3,176.7,284.7,177.8,285.3,178.3L285.3,178.3z"/>
	</g>
</g>
<g>
	<g>
		<path class="st0" d="M241.5,184.2c-0.4-6,0-13.2,2.7-18.7c2.6-5.5,10-15.6,17.1-11.3c6.1,3.7,5.5,12.4,2.4,17.6
			c-3,5-7.6,8.7-12,12.3c-0.6,0.5,0.3,1.4,0.9,0.9c5.8-4.8,12.8-10.3,14.6-18c1.2-5.2-1.3-12.3-6.4-14.5c-5.5-2.4-10.4,2.3-13.6,6.3
			c-5.8,7.2-7.4,16.3-6.8,25.4C240.3,185,241.5,185,241.5,184.2L241.5,184.2z"/>
	</g>
</g>
<g>
	<g>
		<path class="st0" d="M229.4,178.5c-8.1-4.3-18.3-11-20-20.8c-0.1-0.8-1.3-0.5-1.2,0.3c1.8,10.2,12.1,17.1,20.6,21.5
			C229.4,179.9,230.1,178.9,229.4,178.5L229.4,178.5z"/>
	</g>
</g>
<g>
	<g>
		<path class="st0" d="M209.5,158.4c-0.6-3.5-0.3-7.5,4.3-7.3c2.7,0.1,5.1,1.5,7,3.5c0.5,0.6,1.4-0.3,0.9-0.9
			c-2.4-2.7-6.4-4.6-10.1-3.5c-3.9,1.1-3.8,5.3-3.2,8.6C208.5,159.5,209.7,159.2,209.5,158.4L209.5,158.4z"/>
	</g>
</g>
<g>
	<g>
		<path class="st0" d="M220.8,154.5c5.7,7.2,8.4,15.8,7.9,25c0,0.8,1.2,0.8,1.2,0c0.5-9.5-2.4-18.4-8.3-25.9
			C221.2,153,220.4,153.9,220.8,154.5L220.8,154.5z"/>
	</g>
</g>
<g>
	<g>
		<path class="st0" d="M206.9,183.4c-1.3-0.2-2.5-0.8-3.8-1.3c-1.2-0.5-2.4-1-3.4-1.8c-0.6-0.5-1.5,0.3-0.9,0.9
			c1.1,0.9,2.3,1.5,3.6,2c1.3,0.6,2.6,1.2,4.1,1.4C207.4,184.7,207.7,183.5,206.9,183.4L206.9,183.4z"/>
	</g>
</g>
<g>
	<g>
		<path class="st0" d="M199.8,180.4c-0.3-0.4-0.7-1-0.5-1.5c-0.1,0.1-0.2,0.2-0.3,0.4c0.9-0.6,2.3-0.5,3.3-0.4
			c0.8,0.1,0.8-1.2,0-1.2c-0.7-0.1-1.3-0.1-2,0c-0.6,0.1-1.4,0.2-1.9,0.5c-0.8,0.6-0.1,2.2,0.4,2.8
			C199.2,181.7,200.3,181,199.8,180.4L199.8,180.4z"/>
	</g>
</g>
<g>
	<g>
		<path class="st0" d="M202.1,178.8c3.9,1.2,7.5,3,10.7,5.6c0.6,0.5,1.5-0.4,0.9-0.9c-3.4-2.7-7.1-4.7-11.2-5.9
			C201.7,177.4,201.3,178.6,202.1,178.8L202.1,178.8z"/>
	</g>
</g>
<g>
	<g>
		<path class="st0" d="M216,309c16.9-33.1,34.8-66,49.8-100.1c0.3-0.7-0.8-1.4-1.1-0.6c-14.9,34.1-32.8,67-49.8,100.1
			C214.6,309.1,215.7,309.7,216,309L216,309z"/>
	</g>
</g>
<g>
	<g>
		<path class="st0" d="M216.3,330.9c20.8-38.5,40.4-77.7,58.9-117.4c0.3-0.7-0.7-1.4-1.1-0.6c-18.5,39.7-38.1,78.8-58.9,117.4
			C214.8,331,215.9,331.6,216.3,330.9L216.3,330.9z"/>
	</g>
</g>
<g>
	<g>
		<path class="st0" d="M265.7,208.9c1.3-2.4,3.6-4.7,6.5-3.2c2.8,1.4,3,4.9,1.6,7.4c-0.4,0.7,0.7,1.3,1.1,0.6
			c1.6-3.1,1.4-7.2-1.9-9.1c-3.6-2-6.7,0.5-8.4,3.5C264.2,209,265.3,209.6,265.7,208.9L265.7,208.9z"/>
	</g>
</g>
<g>
	<g>
		<path class="st0" d="M225,331.3c21.9-37.4,36.3-78.7,58.2-116.1c0.4-0.7-0.7-1.3-1.1-0.6c-21.9,37.4-36.2,78.7-58.2,116.1
			C223.5,331.4,224.6,332,225,331.3L225,331.3z"/>
	</g>
</g>
<g>
	<g>
		<path class="st0" d="M232.9,337c19.1-39.3,39.1-78.3,58.8-117.3c0.4-0.7-0.7-1.4-1.1-0.6c-19.7,39.1-39.7,78-58.8,117.3
			C231.5,337.1,232.6,337.8,232.9,337L232.9,337z"/>
	</g>
</g>
<g>
	<g>
		<path class="st0" d="M283.1,215.2c1.1-2.1,2.9-4.2,5.5-3.4c2.9,0.9,3.5,4.3,2.4,6.8c-0.3,0.7,0.7,1.4,1.1,0.6
			c1.4-3,0.8-6.9-2.5-8.4c-3.3-1.5-6,1-7.5,3.8C281.7,215.3,282.8,215.9,283.1,215.2L283.1,215.2z"/>
	</g>
</g>
<g>
	<g>
		<path class="st0" d="M296.2,452.5c-20.7-38.6-42.2-76.8-63.4-115.2c-0.4-0.7-1.5-0.1-1.1,0.6c21.2,38.3,42.8,76.5,63.4,115.2
			C295.5,453.8,296.6,453.2,296.2,452.5L296.2,452.5z"/>
	</g>
</g>
<g>
	<g>
		<path class="st0" d="M288.5,456.6c-20.9-38.5-42.7-76.6-64.1-114.8c-0.4-0.7-1.5-0.1-1.1,0.6c21.4,38.2,43.2,76.3,64.1,114.8
			C287.8,457.9,288.9,457.3,288.5,456.6L288.5,456.6z"/>
	</g>
</g>
<g>
	<g>
		<path class="st0" d="M232.8,337.5c0-0.1,0-0.2,0-0.3c0.1-0.3-0.1-0.7-0.4-0.8c-0.4-0.1-0.6,0.1-0.8,0.4c-0.1,0.2-0.1,0.4-0.1,0.6
			C231.6,338.3,232.9,338.3,232.8,337.5L232.8,337.5z"/>
	</g>
</g>
<g>
	<g>
		<path class="st0" d="M224.5,341.8c-1.1-1.9-2.3-3.4-1.8-5.8c0.4-1.7,1.4-3.5,2.3-4.9c0.4-0.7-0.7-1.3-1.1-0.6
			c-1.2,1.9-2.5,4.2-2.7,6.5c-0.2,2.1,1.1,3.8,2.1,5.5C223.8,343.1,224.9,342.5,224.5,341.8L224.5,341.8z"/>
	</g>
</g>
<g>
	<g>
		<path class="st0" d="M215.1,330.4c0,4.3,0,8.6-0.1,12.8c0,0.8,1.2,0.8,1.2,0c0-4.3,0-8.6,0.1-12.8
			C216.4,329.6,215.1,329.6,215.1,330.4L215.1,330.4z"/>
	</g>
</g>
<g>
	<g>
		<path class="st0" d="M215.3,343.6c20.4,37.1,40.3,74.5,59.7,112.2c0.4,0.7,1.4,0.1,1.1-0.6c-19.3-37.7-39.2-75.1-59.7-112.2
			C216,342.3,214.9,342.9,215.3,343.6L215.3,343.6z"/>
	</g>
</g>
<g>
	<g>
		<path class="st0" d="M214.8,364.9c18.1,30.9,35.3,62.3,51.5,94.2c0.4,0.7,1.4,0.1,1.1-0.6c-16.2-31.9-33.4-63.3-51.5-94.2
			C215.5,363.6,214.4,364.2,214.8,364.9L214.8,364.9z"/>
	</g>
</g>
<g>
	<g>
		<path class="st0" d="M214.5,364.7c0.1,30.6,0.3,61.2,0.4,91.9c0,0.8,1.3,0.8,1.2,0c-0.1-30.6-0.3-61.2-0.4-91.9
			C215.8,363.9,214.5,363.9,214.5,364.7L214.5,364.7z"/>
	</g>
</g>
<g>
	<g>
		<path class="st0" d="M214.1,216.8c0.1,30.6,0.3,61.2,0.4,91.9c0,0.8,1.3,0.8,1.2,0c-0.1-30.6-0.3-61.2-0.4-91.9
			C215.4,216,214.1,216,214.1,216.8L214.1,216.8z"/>
	</g>
</g>
<g>
	<g>
		<path class="st0" d="M203.7,212.7c0.4,80,0.7,160.1,1.1,240.1c0,0.8,1.3,0.8,1.2,0c-0.4-80-0.7-160.1-1.1-240.1
			C204.9,211.9,203.7,211.9,203.7,212.7L203.7,212.7z"/>
	</g>
</g>
<g>
	<g>
		<path class="st0" d="M199,211c0,80,0,160.1,0,240.1c0,0.8,1.3,0.8,1.2,0c0-80,0-160.1,0-240.1C200.2,210.1,199,210.1,199,211
			L199,211z"/>
	</g>
</g>
<g>
	<g>
		<path class="st0" d="M188.4,208.8c0,80,0,160.1,0,240.1c0,0.8,1.3,0.8,1.2,0c0-80,0-160.1,0-240.1
			C189.7,208,188.4,208,188.4,208.8L188.4,208.8z"/>
	</g>
</g>
<g>
	<g>
		<path class="st0" d="M205,212.8c0.1-2-0.6-4.7,1.4-6c1.4-0.9,3.7-0.9,5.1-0.4c3.2,1.3,2.4,7.6,2.6,10.6c0,0.8,1.3,0.8,1.2,0
			c-0.2-3.7,0.7-11.6-4.5-12.2c-1.8-0.2-4.3,0.1-5.7,1.3c-1.9,1.7-1.3,4.4-1.4,6.7C203.8,213.6,205,213.6,205,212.8L205,212.8z"/>
	</g>
</g>
<g>
	<g>
		<path class="st0" d="M189.7,208.9c-0.2-3.4,2.9-6.5,6.4-5.5c3.3,0.9,3,5.1,3.1,7.8c0,0.8,1.3,0.8,1.2,0c-0.2-3.6-0.1-8.6-4.8-9.1
			c-4.1-0.5-7.4,2.9-7.2,6.9C188.5,209.7,189.7,209.7,189.7,208.9L189.7,208.9z"/>
	</g>
</g>
<g>
	<g>
		<path class="st0" d="M188.4,448.1c-0.1,4.3-1.3,12.3,4.8,13.1c1.9,0.3,4.2-0.2,5.4-1.9c1.7-2.2,1.2-6.2,1.4-8.8
			c0.1-0.8-1.2-0.8-1.2,0c-0.1,1.9-0.2,3.8-0.5,5.7c-0.4,3-3.3,4.7-6.1,3.4c-3.9-1.7-2.7-8.1-2.6-11.5
			C189.7,447.3,188.4,447.3,188.4,448.1L188.4,448.1z"/>
	</g>
</g>
<g>
	<g>
		<path class="st0" d="M204.7,452.4c-0.1,3.6,0.6,7.9,4.7,8.7c3.8,0.7,6-0.6,6.7-4.4c0.2-0.8-1-1.1-1.2-0.3c-0.2,1-0.4,2.4-1.3,3.1
			c-1.2,0.9-3.1,0.7-4.5,0.3c-3-0.9-3.3-4.8-3.2-7.4C206,451.6,204.7,451.6,204.7,452.4L204.7,452.4z"/>
	</g>
</g>
<g>
	<g>
		<path class="st0" d="M266.1,458.6c1.3,3.6,3.8,7.4,8.1,5.7c1.5-0.6,2.8-1.9,3.2-3.5c0.6-2.2-0.5-4.2-1.6-6
			c-0.4-0.7-1.5-0.1-1.1,0.6c0.8,1.2,1.6,2.5,1.6,4c0,1.8-1.4,3.4-3,3.9c-3.3,1-5.1-2.5-6-5C267,457.5,265.8,457.8,266.1,458.6
			L266.1,458.6z"/>
	</g>
</g>
<g>
	<g>
		<path class="st0" d="M287.2,456.9c0.6,1.6,1.5,2.9,2.9,3.9c1.6,1.2,2.8,1.1,4.6,0.3c1.5-0.7,3.1-1.8,3.5-3.5
			c0.4-2-1.1-3.8-2.1-5.4c-0.4-0.7-1.5,0-1.1,0.6c0.5,0.7,1,1.5,1.4,2.3c1,2,0.1,3.8-1.8,4.7c-1.5,0.7-2.9,0.8-4.1-0.3
			c-0.9-0.8-1.6-1.8-2-2.9C288.1,455.8,286.9,456.2,287.2,456.9L287.2,456.9z"/>
	</g>
</g>
</svg>
